<svg version="1.1"  xmlns="http://www.w3.org/2000/svg" xmlns:xlink="http://www.w3.org/1999/xlink" x="0px" y="0px"
	 viewBox="0 0 513.173 513.173" style="enable-background:new 0 0 513.173 513.173;" xml:space="preserve">
		<path d="M393.12,197.419c0-17.263-12.155-33.292-34.133-45.622V77.952c0-4.713-3.821-8.533-8.533-8.533
			c-0.581,0-4.621,0.04-10.977,0.676c-0.22-0.771-0.361-1.531-0.628-2.309c-4.953-13.633-17.155-23.319-31.557-25.047
			c0.741-5.837,0.122-11.766-1.81-17.323c-7.187-19.946-29.168-30.304-49.125-23.15c-5.907,2.19-11.177,5.816-15.334,10.551
			c-7.985-5.867-18.349-7.42-27.704-4.151c-14,4.982-22.145,19.564-19.046,34.097c-0.121,0.045-0.255,0.056-0.375,0.102
			c-11.856,4.229-20.396,14.674-22.184,27.135c-5.435-0.525-8.776-0.58-8.995-0.58c-4.713,0-8.533,3.82-8.533,8.533v73.845
			c-21.979,12.33-34.133,28.358-34.133,45.622v8.533c0,0.094,0.05,0.171,0.053,0.264c0.003,0.093-0.042,0.172-0.036,0.265
			l17.067,275.541c0.069,0.374,0.165,0.743,0.286,1.104c0.084,0.532,0.219,1.055,0.405,1.561c0.473,0.95,1.051,1.844,1.722,2.666
			c0.454,0.438,0.955,0.824,1.496,1.15c0.268,0.236,0.552,0.454,0.849,0.653c0.183,0.09,0.377,0.158,0.56,0.247l0.024,0.011
			c4.511,2.193,9.136,4.253,13.761,6.067c32.055,12.094,66.088,18.087,100.346,17.671c34.247,0.417,68.27-5.572,100.317-17.658
			c4.653-1.827,9.278-3.886,13.79-6.08l0.026-0.011c0.183-0.089,0.377-0.157,0.559-0.246c0.297-0.198,0.58-0.416,0.848-0.652
			c0.541-0.326,1.043-0.712,1.497-1.151c0.672-0.822,1.25-1.716,1.723-2.667c0.185-0.505,0.32-1.027,0.404-1.558
			c0.122-0.361,0.217-0.731,0.286-1.106l17.067-275.541c0.006-0.093-0.039-0.173-0.036-0.265c0.003-0.092,0.053-0.17,0.053-0.264
			V197.419z M341.92,87.04v135.979h-25.856c-1.894-53.543-21.302-88.457-45.791-111.162C291.862,98.046,316.414,89.542,341.92,87.04
			z M214.782,333.952L214.782,333.952h-31.657l-1.969-17.067h33.627C213.632,322.516,213.632,328.321,214.782,333.952z
			 M222.671,351.019c13.898,18.731,40.349,22.648,59.08,8.75c3.331-2.471,6.279-5.42,8.75-8.75h37.578l-10.83,93.867H195.924
			l-10.83-93.867H222.671z M230.986,325.419c0-14.138,11.461-25.6,25.6-25.6c14.132,0.015,25.585,11.468,25.6,25.6
			c0,14.138-11.461,25.6-25.6,25.6S230.986,339.557,230.986,325.419z M298.391,333.952c1.15-5.631,1.15-11.436,0-17.067h33.627
			l-1.969,17.067H298.391z M290.501,299.819c-13.898-18.731-40.349-22.648-59.08-8.75c-3.331,2.471-6.279,5.42-8.75,8.75h-43.485
			l-6.892-59.733h168.583l-6.892,59.733H290.501z M199.865,58.852c1.785-0.678,3.696-0.955,5.6-0.812
			c0.491,0.04,0.985,0.034,1.475-0.017c4.028,0.294,7.801,2.085,10.575,5.021c2.72,3.855,8.049,4.775,11.904,2.055
			c3.137-2.213,4.412-6.247,3.117-9.861l0.054-0.019l-0.054,0.019c-0.336-0.966-0.842-1.865-1.496-2.652
			c-4.981-5.826-11.854-9.714-19.413-10.981c-0.069-0.168-0.194-0.341-0.254-0.506c-2.387-6.66,1.078-13.995,7.738-16.381
			c5.902-2.115,12.468,0.352,15.516,5.831c0.211,0.286,0.441,0.558,0.689,0.814c0.328,0.484,0.707,0.931,1.131,1.334
			c0.438,0.374,0.913,0.701,1.42,0.976c0.284,0.225,0.582,0.43,0.894,0.614c0.166,0.07,0.34,0.045,0.508,0.104
			c2.132,0.643,4.422,0.525,6.477-0.335c0.154-0.073,0.322-0.066,0.474-0.148c0.283-0.209,0.552-0.437,0.805-0.682
			c0.488-0.33,0.94-0.712,1.346-1.14c0.375-0.439,0.703-0.916,0.978-1.424c0.223-0.282,0.426-0.578,0.609-0.887
			c2.264-5.36,6.683-9.517,12.171-11.45c11.088-3.973,23.299,1.782,27.292,12.862c1.552,4.365,1.617,9.122,0.183,13.527
			c-9.253,3.348-16.853,10.143-21.212,18.965c-2.087,4.225-0.354,9.342,3.871,11.429c4.225,2.087,9.342,0.354,11.429-3.871
			c2.463-4.945,6.753-8.738,11.963-10.575c0.756-0.258,1.53-0.459,2.317-0.6c10.122-2.322,20.441,3.007,24.408,12.605
			c-23.708,4.513-46.178,14.039-65.907,27.94c-20.375-14.102-43.522-23.698-67.898-28.15
			C189.524,66.178,193.87,60.942,199.865,58.852z M171.253,86.923c2.194,0.19,4.782,0.477,7.631,0.866l0,0
			c0.433,0.114,0.874,0.193,1.319,0.234l0.215-0.019c25.126,3.409,48.985,13.103,69.369,28.183c0.055,0.073,0.063,0.164,0.12,0.235
			c0.842,1.023,1.916,1.83,3.133,2.354c24.089,19.917,44.022,52.15,46,104.242H171.253V86.923z M137.12,201.687v-4.268
			c1.239-10.783,7.59-20.312,17.067-25.605v42.671L137.12,201.687z M141.981,284.175l-3.735-60.313l16.416,12.311l6.654,57.669
			L141.981,284.175z M143.2,303.868l20.451,10.225l1.843,15.973l-21.332-10.667L143.2,303.868z M153.154,464.567l-7.772-125.475
			l22.054,11.027c0.119,0.06,0.261,0.036,0.382,0.09l11.391,98.724L153.154,464.567z M350.632,479.623
			c-30.05,11.297-61.946,16.88-94.046,16.462c-32.111,0.417-64.017-5.171-94.075-16.475c-0.244-0.096-0.481-0.222-0.725-0.32
			l28.897-17.339h131.806l28.897,17.338C351.131,479.392,350.888,479.523,350.632,479.623z M360.018,464.567l-26.055-15.634
			l11.391-98.724c0.121-0.054,0.263-0.031,0.382-0.09l22.054-11.027L360.018,464.567z M369.01,319.399l-21.332,10.667l1.843-15.973
			l20.451-10.225L369.01,319.399z M371.192,284.175l-19.334,9.668l6.654-57.669l16.416-12.311L371.192,284.175z M376.053,201.687
			l-17.067,12.798v-42.671c9.476,5.293,15.828,14.822,17.067,25.605V201.687z"/>

		<path d="M196.853,112.086c-4.713,0-8.533,3.82-8.533,8.533v17.067c0,4.713,3.82,8.533,8.533,8.533s8.533-3.82,8.533-8.533v-17.067
			C205.386,115.906,201.566,112.086,196.853,112.086z"/>

		<path d="M196.853,163.286c-4.713,0-8.533,3.82-8.533,8.533v17.067c0,4.713,3.82,8.533,8.533,8.533s8.533-3.82,8.533-8.533v-17.067
			C205.386,167.106,201.566,163.286,196.853,163.286z"/>

		<path d="M230.986,163.286c-4.713,0-8.533,3.82-8.533,8.533v17.067c0,4.713,3.821,8.533,8.533,8.533
			c4.713,0,8.533-3.82,8.533-8.533v-17.067C239.52,167.106,235.699,163.286,230.986,163.286z"/>

		<path d="M316.32,112.086c-4.713,0-8.533,3.82-8.533,8.533v17.067c0,4.713,3.82,8.533,8.533,8.533s8.533-3.82,8.533-8.533v-17.067
			C324.853,115.906,321.032,112.086,316.32,112.086z"/>
</svg>
