<svg version="1.1" xmlns="http://www.w3.org/2000/svg" xmlns:xlink="http://www.w3.org/1999/xlink" x="0px" y="0px"
	 viewBox="0 0 484.975 484.975" style="enable-background:new 0 0 484.975 484.975;" xml:space="preserve">
			<path style="fill:#020202;" d="M462.419,165.912H22.556c0,0-22.556,0-22.556-38.287s22.556-38.287,22.556-38.287h439.863
				c0,0,22.556,0,22.556,38.287S462.419,165.912,462.419,165.912z"/>
			<path style="fill:#020202;" d="M462.419,280.776H22.556c0,0-22.556,0-22.556-38.288S22.556,204.2,22.556,204.2h439.863
				c0,0,22.556,0,22.556,38.287C484.975,280.776,462.419,280.776,462.419,280.776z"/>
			<path style="fill:#020202;" d="M462.419,395.637H22.556c0,0-22.556,0-22.556-38.286c0-38.288,22.556-38.288,22.556-38.288
				h439.863c0,0,22.556,0,22.556,38.288C484.975,395.637,462.419,395.637,462.419,395.637z"/>
</svg>
