<?xml version="1.0" encoding="iso-8859-1"?>
<!-- Generator: Adobe Illustrator 19.0.0, SVG Export Plug-In . SVG Version: 6.00 Build 0)  -->
<svg version="1.1" id="Capa_1" xmlns="http://www.w3.org/2000/svg" xmlns:xlink="http://www.w3.org/1999/xlink" x="0px" y="0px"
	 viewBox="0 0 496 496" style="enable-background:new 0 0 496 496;" xml:space="preserve">
<g>
	<polygon style="fill:#FFA64D;" points="336,80 160,80 136,144 360,144 	"/>
	<path style="fill:#FFA64D;" d="M86.232,397.76c0.608,0.752,1.152,1.48,1.768,2.24l64,88h96h8L144.832,353.008
		C119.648,358.976,98.464,375.312,86.232,397.76z"/>
	<path style="fill:#FFA64D;" d="M409.768,397.76c-0.608,0.752-1.152,1.48-1.768,2.24l-64,88h-96h-8l111.168-134.992
		C376.352,358.976,397.536,375.312,409.768,397.76z"/>
</g>
<g>
	<path style="fill:#333333;" d="M314.344,255.6l11.312-11.312c-16.352-16.352-42.96-16.352-59.312,0l11.312,11.312
		C287.776,245.488,304.224,245.488,314.344,255.6z"/>
	<path style="fill:#333333;" d="M210.344,255.6l11.312-11.312c-16.352-16.352-42.96-16.352-59.312,0l11.312,11.312
		C183.776,245.488,200.224,245.488,210.344,255.6z"/>
	<path style="fill:#333333;" d="M361.144,347.376L376.648,328h-30.384c-2.632,0-5.2-0.336-7.712-0.88
		c7.024-9.696,12.872-20.136,17.448-31.12h12c17.648,0,32-14.352,32-32s-14.352-32-32-32v-16h51.504
		c11.032,0,20.608-7.48,23.288-18.176L458.248,136h-92.592L340.84,65.688C326.976,26.4,289.664,0,248,0s-78.976,26.4-92.84,65.688
		L130.344,136H37.752l15.456,61.824C55.88,208.52,65.456,216,76.496,216H128v16c-17.648,0-32,14.352-32,32s14.352,32,32,32h12
		c4.576,10.984,10.424,21.424,17.448,31.12c-2.512,0.544-5.08,0.88-7.712,0.88h-30.384l15.496,19.376
		c-29.8,9.904-53.848,33.784-63.36,64.232L45.12,496h405.76l-26.376-84.392C414.992,381.16,390.944,357.28,361.144,347.376z
		 M384,264c0,8.824-7.176,16-16,16h-6.352c3.056-10.416,5.072-21.128,5.872-32H368C376.824,248,384,255.176,384,264z M200,163.312
		L236.688,200h-73.376L200,163.312z M152,188.688L115.312,152h73.376L152,188.688z M211.312,152h73.376L248,188.688L211.312,152z
		 M296,163.312L332.688,200h-73.376L296,163.312z M419.504,200h-64.192l12.608-12.608l-11.312-11.312L344,188.688L307.312,152
		h73.376l-14.344,14.344l11.312,11.312L392,163.312l33.664,33.664C424.184,198.808,421.984,200,419.504,200z M430.864,179.552
		L403.312,152h34.44L430.864,179.552z M248,16c34.896,0,66.144,22.112,77.76,55.016L326.104,72H169.896l0.344-0.984
		C181.856,38.112,213.104,16,248,16z M152.952,120H304v-16H158.6l5.648-16h167.504l5.648,16H320v16h23.048l5.648,16H147.304
		L152.952,120z M92.688,152l-27.552,27.552L58.248,152H92.688z M70.336,196.976L104,163.312L140.688,200H76.496
		C74.016,200,71.816,198.808,70.336,196.976z M128,280c-8.824,0-16-7.176-16-16s7.176-16,16-16h0.48
		c0.8,10.872,2.824,21.584,5.872,32H128z M144,236.776V216h208v20.776c0,30-10.008,59.384-28.08,83.272
		c-1.072-0.856-2.192-1.632-3.176-2.616c-1.68-1.68-3.2-3.528-4.504-5.504l-4.704-7.056C304.488,294.312,292.704,288,280,288
		s-24.488,6.312-31.528,16.872L248,305.576l-0.472-0.704C240.488,294.312,228.704,288,216,288c-12.704,0-24.488,6.312-31.528,16.872
		l-4.704,7.056c-1.304,1.968-2.824,3.816-4.504,5.496c-0.984,0.984-2.104,1.76-3.176,2.616C154.008,296.152,144,266.768,144,236.776
		z M186.568,328.744c2.432-2.432,4.624-5.104,6.504-7.936l4.704-7.056C201.848,307.648,208.664,304,216,304
		s14.152,3.648,18.216,9.752L248,334.424l13.784-20.672C265.848,307.648,272.664,304,280,304s14.152,3.648,18.216,9.752l4.696,7.048
		c1.888,2.84,4.08,5.512,6.512,7.944c9.168,9.168,21.144,14.496,33.992,15.184l-3.96,4.944c-9.72,12.152-24.232,19.128-39.8,19.128
		c-10.96,0-21.824-3.624-30.584-10.192L248,342l-21.072,15.808c-8.76,6.568-19.624,10.192-30.584,10.192
		c-15.568,0-30.08-6.976-39.808-19.128l-3.96-4.944C165.424,343.24,177.408,337.904,186.568,328.744z M66.88,480l19.88-63.624
		c3.544-11.352,9.52-21.6,17.232-30.24V400h16v-16H106.16c10.728-11.16,24.456-19.24,39.744-23.048
		C158.648,375.584,176.832,384,196.344,384c14.4,0,28.664-4.76,40.184-13.392L248,362l11.472,8.608
		C270.992,379.24,285.256,384,299.656,384c19.512,0,37.696-8.416,50.424-23.048c15.288,3.808,29.016,11.888,39.744,23.048H376v16h16
		v-13.856c7.712,8.632,13.688,18.888,17.232,30.24L429.12,480H66.88z"/>
	<rect x="352" y="416" style="fill:#333333;" width="16" height="16"/>
	<rect x="328" y="448" style="fill:#333333;" width="16" height="16"/>
	<rect x="128" y="416" style="fill:#333333;" width="16" height="16"/>
	<rect x="152" y="448" style="fill:#333333;" width="16" height="16"/>
</g>
<g>
</g>
<g>
</g>
<g>
</g>
<g>
</g>
<g>
</g>
<g>
</g>
<g>
</g>
<g>
</g>
<g>
</g>
<g>
</g>
<g>
</g>
<g>
</g>
<g>
</g>
<g>
</g>
<g>
</g>
</svg>
