<svg version="1.1" xmlns="http://www.w3.org/2000/svg" xmlns:xlink="http://www.w3.org/1999/xlink" x="0px" y="0px"
	 viewBox="0 0 509.132 509.132" style="enable-background:new 0 0 509.132 509.132;" xml:space="preserve">

		<path d="M423.786,108.059H244.264l-12.928-70.033l-2.925-16.808c-2.424-13.931-15.682-23.258-29.613-20.834
			c-0.001,0-0.003,0-0.004,0.001l-117.7,20.467c-13.942,2.35-23.338,15.558-20.988,29.5s15.558,23.338,29.5,20.988
			c0.088-0.015,0.176-0.03,0.263-0.046l92.567-16.092l9.758,52.858h-24.408c-14.132,0.015-25.585,11.468-25.6,25.6v17.067
			c0.036,10.945,7.039,20.651,17.415,24.136l15.952,311.072c0.992,13.306,12.236,23.502,25.575,23.192h189.317
			c13.339,0.31,24.583-9.886,25.575-23.192l15.952-311.072c10.375-3.485,17.378-13.191,17.415-24.136v-17.067
			C449.371,119.527,437.918,108.074,423.786,108.059z M266.415,322.078c-5.381,1.922-10.938,3.314-16.59,4.155l-27.673-149.907
			h17.356L266.415,322.078z M269.543,339.022l22.751,123.245c0.852,4.641-2.22,9.095-6.861,9.947
			c-0.021,0.004-0.043,0.008-0.064,0.012c-4.604,0.772-8.982-2.273-9.858-6.858l-22.586-122.343
			C258.564,342.143,264.122,340.805,269.543,339.022z M230.058,125.126l6.301,34.133h-17.357l-6.301-34.133H230.058z M179.52,38.384
			L86.945,54.476c-4.638,0.826-9.068-2.264-9.895-6.902c-0.826-4.638,2.264-9.068,6.902-9.895c0.023-0.004,0.045-0.008,0.068-0.012
			l100.892-17.542h0.008l16.808-2.925c4.633-0.813,9.049,2.285,9.861,6.918c0.002,0.01,0.004,0.021,0.005,0.032l2.942,16.892
			l12.371,67.017H209.55l-10.33-55.958C197.517,42.905,188.734,36.79,179.52,38.384z M167.786,159.259
			c-4.711-0.003-8.53-3.822-8.533-8.533v-17.067c0.003-4.711,3.822-8.53,8.533-8.533h27.558l6.302,34.133H167.786z M176.77,176.326
			h28.027l27.846,150.838c-17.734-0.439-34.881-6.441-49.017-17.157L176.77,176.326z M398.97,485.067
			c-0.547,4.218-4.282,7.281-8.525,6.992H201.128c-4.243,0.288-7.977-2.775-8.525-6.992l-7.89-153.829
			c15.633,8.669,33.227,13.186,51.103,13.12l22.911,124.109c2.557,13.795,15.734,22.967,29.558,20.575
			c13.935-2.428,23.264-15.693,20.836-29.628c-0.014-0.083-0.029-0.165-0.044-0.247L285.629,332.14
			c5.539-2.946,10.767-6.44,15.607-10.431c31.029-24.256,74.388-24.972,106.201-1.753L398.97,485.067z M408.456,300.091
			c-16.072-9.356-34.356-14.238-52.953-14.14c-23.696-0.265-46.743,7.739-65.175,22.633c-2.538,2.074-5.209,3.981-7.994,5.71
			l-25.468-137.969h157.938L408.456,300.091z M432.32,150.726c-0.003,4.711-3.822,8.53-8.533,8.533H253.715l-6.3-34.133h176.371
			c4.711,0.003,8.53,3.822,8.533,8.533V150.726z"/>

		<path d="M378.194,427.325l-12.074-12.066c-6.67-6.65-17.463-6.65-24.133,0l-12.067,12.067c-6.659,6.667-6.659,17.467,0,24.133
			l12.075,12.083c6.674,6.637,17.456,6.633,24.125-0.009l12.075-12.075l0.008-0.009
			C384.838,444.776,384.834,433.995,378.194,427.325z M354.053,451.467l-12.067-12.075l12.067-12.067l12.075,12.067L354.053,451.467
			z"/>

		<path d="M374.445,337.034l-23.683-9.733c-8.717-3.563-18.673,0.596-22.267,9.3l-9.733,23.683c-3.571,8.717,0.59,18.679,9.3,22.267
			l23.683,9.733c8.708,3.584,18.673-0.57,22.258-9.278c0.003-0.007,0.006-0.015,0.009-0.022l9.733-23.683
			C387.316,350.584,383.155,340.621,374.445,337.034z M358.236,376.501h-0.009l-23.683-9.733l9.733-23.683l23.683,9.733
			L358.236,376.501z"/>

</svg>
