<?xml version="1.0" encoding="iso-8859-1"?>
<!-- Generator: Adobe Illustrator 19.0.0, SVG Export Plug-In . SVG Version: 6.00 Build 0)  -->
<svg version="1.1" id="Capa_1" xmlns="http://www.w3.org/2000/svg" xmlns:xlink="http://www.w3.org/1999/xlink" x="0px" y="0px"
	 viewBox="0 0 512 512" style="enable-background:new 0 0 512 512;" xml:space="preserve">
<g>
	<g>
		<path d="M271,30.838V0h-30v30.838C178.521,37.776,128.777,87.521,121.838,150h268.324C383.223,87.521,333.479,37.776,271,30.838z"
			/>
	</g>
</g>
<g>
	<g>
		<path d="M482,424.58v-63.666c-10.589-1.521-20.67-4.626-30-9.067V362H60v-10.126c-9.333,4.43-19.413,7.525-30,9.042v63.664
			C12.541,430.772,0,447.445,0,467c0,24.813,20.187,45,45,45s45-20.187,45-45c0-19.555-12.541-36.228-30-42.42V392h392v32.58
			c-17.459,6.192-30,22.865-30,42.42c0,24.813,20.187,45,45,45s45-20.187,45-45C512,447.445,499.459,430.772,482,424.58z"/>
	</g>
</g>
<g>
	<g>
		<path d="M0,180v152h15c24.631,0,46.539-11.887,60.281-30.223C89.024,320.113,110.931,332,135.563,332
			c24.632,0,46.539-11.887,60.281-30.223C209.586,320.113,231.494,332,256.125,332c24.632,0,46.539-11.887,60.281-30.223
			C330.148,320.113,352.056,332,376.688,332c24.594,0,46.473-11.852,60.219-30.139C450.603,320.146,472.442,332,497,332h15V180H0z"
			/>
	</g>
</g>
<g>
</g>
<g>
</g>
<g>
</g>
<g>
</g>
<g>
</g>
<g>
</g>
<g>
</g>
<g>
</g>
<g>
</g>
<g>
</g>
<g>
</g>
<g>
</g>
<g>
</g>
<g>
</g>
<g>
</g>
</svg>
