<svg xmlns="http://www.w3.org/2000/svg" viewBox="0 0 130.94 114.9"><defs><style>.cls-1{isolation:isolate;}.cls-2{fill:#3d2314;}.cls-3,.cls-8{fill:#f39744;}.cls-4{fill:#cb2636;}.cls-5{font-size:10px;font-family:Montserrat-Black, Montserrat;letter-spacing:0.05em;}.cls-5,.cls-7{fill:#f6f1c7;}.cls-6{letter-spacing:0.07em;}.cls-8{mix-blend-mode:screen;}.cls-9{fill:#54897f;}</style></defs><title>Asset 3</title><g class="cls-1"><g id="Layer_2" data-name="Layer 2"><g id="Layer_1-2" data-name="Layer 1"><circle class="cls-2" cx="65.47" cy="52.47" r="52.47"/><circle class="cls-3" cx="65.47" cy="52.47" r="44.81"/><path class="cls-2" d="M104.48,114.9H27.21A13.86,13.86,0,0,1,13.35,101V54.9h105V101A13.86,13.86,0,0,1,104.48,114.9Z"/><path class="cls-2" d="M32.42,77.14A26.74,26.74,0,0,1,24,75.61a3.23,3.23,0,0,1-2.71-3.21,54.22,54.22,0,0,1,1.17-13,3,3,0,0,1-1.78.57c-.5,0-3-.19-3-3.85,0-6.29,5-10.19,13-10.19,6.39,0,14.15,2.62,15.93,7.47.56,1.52.95,4.52-2.68,7.6a9.67,9.67,0,0,1-1.55,1.07,8.1,8.1,0,0,1,.5.76,9.23,9.23,0,0,1-.09,9.08c-1.13,2-4,5.24-10.49,5.24Zm-2.21-7.72a9.81,9.81,0,0,0,2,.22c2.61,0,3.93-1.07,3.93-3.19,0-.4,0-.62-2.27-1.21a10,10,0,0,1-3.34-1.35A54.49,54.49,0,0,0,30.21,69.42Z"/><path class="cls-2" d="M130.94,78.9H0L8.62,93.4,0,107.9H130.94l-8.62-14.5Zm-4.8,26H4.8l6.84-11.5L4.8,81.9H126.14l-6.84,11.5Z"/><polygon class="cls-4" points="126.14 81.9 4.8 81.9 11.64 93.4 4.8 104.9 126.14 104.9 119.31 93.4 126.14 81.9"/><text class="cls-5" transform="translate(17.05 98.43)">T<tspan class="cls-6" x="6.86" y="0">OOK THE FOOD</tspan></text><path class="cls-2" d="M74,89.34c-2.82,0-4.91-1.27-5.74-3.49-1-2.77.2-6.49,3.4-10.32a6.11,6.11,0,0,1-2.1-1.4A7,7,0,0,1,68,71.78a4.8,4.8,0,0,1-3.14-1.24c-1.38,3.89-2.14,5.38-4.56,5.38A4,4,0,0,1,58,75.23a3.88,3.88,0,0,1-.55-.47,8.9,8.9,0,0,1-3.83,1,4.54,4.54,0,0,1-3.34-1.33,6.85,6.85,0,0,1-4,1.5,4.5,4.5,0,0,1-3.65-1.79c-.9-1.18-1.75-3.4-.69-7.33a28.9,28.9,0,0,0,.75-4.08l0-.1c1-5.37,3.89-5.94,5.09-5.94a3.84,3.84,0,0,1,2.84,1.21,4.49,4.49,0,0,1,3.16-1.14c2.26,0,3.9,1.38,3.9,3.29,0,.2,0,.38,0,.55a9.54,9.54,0,0,1,.83-2.17,3.52,3.52,0,0,1,3.18-1.62,6,6,0,0,1,1,.09,2.79,2.79,0,0,1,1.51.74,4.45,4.45,0,0,1,2.58-.84A4.26,4.26,0,0,1,68,57a3.93,3.93,0,0,1,1.77,1.08,3.29,3.29,0,0,1,.94,2.7c2.07-2.89,4.55-4,6.47-4A3.86,3.86,0,0,1,80,57.9h.39a3.12,3.12,0,0,1,2.37.94,4,4,0,0,1,1,2.54,10.18,10.18,0,0,1,1.58-2.2,7.17,7.17,0,0,1,5.25-2.29,6.08,6.08,0,0,1,5,2.3,4,4,0,0,1,1.21-1.7,3.88,3.88,0,0,1,2.33-.63,6.32,6.32,0,0,1,1,.07,2.81,2.81,0,0,1,1.51.74,4.85,4.85,0,0,1,2.72-.81,3.6,3.6,0,0,1,3,1.32c1.2,1.5.76,3.45.49,4.62l-.09.44a12.55,12.55,0,0,0,1.08-.8L113,59l-.64,10-1,.65a10.87,10.87,0,0,1-5.72,2.15,4.82,4.82,0,0,1-3.35-1.23c-1.38,3.89-2.13,5.38-4.56,5.38a3.86,3.86,0,0,1-2.95-1.24,11.19,11.19,0,0,1-4.91,1.25,7.54,7.54,0,0,1-4.58-1.47,22.78,22.78,0,0,1-2.76,2l-.18.12c-.1.48-.2,1.35-.27,1.9C81.66,82,80.8,89.34,74,89.34Z"/><path class="cls-7" d="M20.12,56.12c0,3,1.9,1,3.52-2,2.95-4,20.08-3.41,16.76,2.65-1.82,3.32-7,2.52-7.88,2.52-.6,0-1.22.07-1.31.66-.68,4.16,7.3,1.69,7.3,6.47,0,5.26-5.31,6.55-10.34,4.86-.79-.6.06-10,.75-12.39a13.26,13.26,0,0,1,1.85-4c-.9-1.52-2.18-1.48-3.63-.48-3.18,4.73-3.44,11.87-3.44,18,0,.43.14.74,1,.95C44.5,80,45.4,61.24,36,61.24a10.31,10.31,0,0,0,6.52-2.05C53.46,49.92,20.12,41.7,20.12,56.12Z"/><path class="cls-7" d="M105.45,62.27c.27-1.21.8-3.2-1.11-3.2-2.32,0-3.36,3-4.12,4.82h-.16c-.09-2.56.54-4.63-.34-4.79a2.7,2.7,0,0,0-1.52.14c-.93.66-1.9,6.78-2.07,8.12-1.57,1.27-4,2.79-6.06,2.79-.91,0-1.35-.44-1.83-1.29,7.4-2,7.95-9.78,2.35-9.78-4.69,0-6.22,6.34-6.13,8.5a13.43,13.43,0,0,1-4.17,4.46c.39-4.05.31-4.72.75-6.25a9.33,9.33,0,0,0,.37-1.94c.31-6-1.1-2.46-3.08-4.46-.86-1-5-.57-7.54,6.07-5.1,2.48-2-4.41-2.53-5.62a1.29,1.29,0,0,0-.77-.69c-2.53-.92-4.24,3.63-4.66,4.73h-.16c-.09-2.56.54-4.63-.34-4.79-.64-.11-1.45-.11-1.79.44-.54.88-1.55,5.24-1.9,8.69a12.15,12.15,0,0,1-3.12,1.83c-1,.37-1.38.14-1.42-1a8.87,8.87,0,0,1,.33-2.85c.83-4.45.91-4.53.91-6.33,0-1.27-3-1.15-3.24-.1l-1.6,7.88c-.54,2.8-3.44,3.52-2.93.67,1.26-7.05,1.32-7.21,1.5-8.6,0-.83-3-2.34-4,3.15a30.59,30.59,0,0,1-.81,4.4c-1.79,6.63,2.66,8.26,6.74,3,.41,1.9,1.3,5,7.59.94a2.39,2.39,0,0,0,.83,1.88,1.62,1.62,0,0,0,1,.25c1.24,0,1.33-1.11,4.22-8.51h.23c.43,2.75,1.6,5.28,5.11,4.07,0,3.24,3.4,6.42,7.09,2.93l-.29,1.72c-7.9,6.89-8.24,13.21-2.72,13.21,6.89,0,5-11,6.6-12a18.15,18.15,0,0,0,4.76-3.92c1.57,2.72,5.36,3.94,10.6.23.1,1.31.45,2.32,1.8,2.32s1.34-1.14,4.22-8.51h.23c.66,4.54,2.91,5.84,7.88,2.59l.22-3.38C107.06,66.76,104.36,67.14,105.45,62.27ZM73.64,84.05c-1.92,0,1.27-5.67,3.07-6.94C76.44,79.37,75.93,84.05,73.64,84.05ZM77,66.58c-.29,6.42-6.2,5-1.87-2.56q1.27-2.26,3-2.26ZM89.1,62.69c1.54-1.86,3.67-.31,2.13,1.79a4.57,4.57,0,0,1-3.32,2A7.36,7.36,0,0,1,89.1,62.69Z"/><path class="cls-8" d="M81,45.29a8.48,8.48,0,0,0,1.82,0c-.82.29-1.65.58-2.44.94a0,0,0,0,0,0,.09,13.8,13.8,0,0,0,3.8-.77l0,0a17.48,17.48,0,0,1-3.41,1.35,22.12,22.12,0,0,0-3.24.78,0,0,0,0,0,0,0,9,9,0,0,0,3.34-.44,19.53,19.53,0,0,0,2.07-.6A24.64,24.64,0,0,1,80,48c-1.73.77-3.53,1.1-5.32,1.69a24.61,24.61,0,0,1-6.18,1.21,50.6,50.6,0,0,1-12-.39,20.69,20.69,0,0,1-5.74-1.9,22.5,22.5,0,0,1-2.51-1.52L50,48a5.68,5.68,0,0,0,2.76.94c.05,0,.09-.07,0-.11a11.81,11.81,0,0,0-2.08-1.12c-.77-.4-1.45-.94-2.18-1.39a16.68,16.68,0,0,1-2.89-2.1,25.52,25.52,0,0,0,2.41,1.44c.91.53,1.73,1.24,2.85,1.16.06,0,.09-.09,0-.12a17.4,17.4,0,0,1-3.3-2.22,12.69,12.69,0,0,0,1.85.45.1.1,0,0,0,.08-.19c-1.06-.62-2.24-1.09-3.25-1.79a5.89,5.89,0,0,0,2.34.61c.1,0,.17-.14.09-.21a9.58,9.58,0,0,0-1.51-.83l-.09,0c.23-.07.46-.19.68-.28l0,.08a.35.35,0,0,0,.42.24,2.13,2.13,0,0,0,1-.45c.75-.54.56.33.53.89-.06,1.08,1.48.3,1.63.85.3,1.13,1.58.53,2.28.54.53,0,.65.41.88.6.07.49,0,1.15.51,1.27a2.48,2.48,0,0,0,1.37-.06c.92-.3.62.59,1.24.76s.82-.11,1.32.24a1.38,1.38,0,0,0,1.05.35c.19,0,.33-.31.38-.46.32-.89.58-1.58,1.49-1.86,0,.88-.47,1.49.7,1.9.67.23,1.26-.16,1.89.43a1.14,1.14,0,0,0,1.1.09c.31-.08.51-.5.66-.74.41-.67,1,.3,1.47.29,1.11,0,.68-1.3,1.24-1.57A1.7,1.7,0,0,0,70,46.86c.51.23,1.45.21,1.77-.33s0-1-.37-1.34a1.16,1.16,0,0,1-.18-.22l0-.09c0-.24,1.05.18,1.35.38a1.28,1.28,0,0,0,1,.28c.24-.08.58-.2.7-.45s.34-1.56.93-1.19c.85.54,1.38.74,2.19,0,.18-.16.18-.49.19-.71,0-1.1,1.36.23,1.64.4a.88.88,0,0,0,1.18-.27c.43.57,1.15,1.18,1.76.78s.41-.75.16-1.15h.34a.39.39,0,0,0,.23,0,2.63,2.63,0,0,0,1.36,0,5.48,5.48,0,0,0,.88-.26v.09a7,7,0,0,0-.69.23c-.52.17-1.06.26-1.57.44a.12.12,0,0,0,0,.23,2.8,2.8,0,0,0,1.54-.11l.47-.1a6.14,6.14,0,0,1-1.35.37,3.62,3.62,0,0,0-1.58.47.06.06,0,0,0,0,.12,7.45,7.45,0,0,0,1.67-.17,6.43,6.43,0,0,0,1.34-.33l0,.13A17,17,0,0,1,81,45.17.06.06,0,0,0,81,45.29Z"/><path class="cls-8" d="M50.47,19.11a19.77,19.77,0,0,1,6.91-2.53,50,50,0,0,1,7.21-.52,44.58,44.58,0,0,1,4.56.31c4.67.55,13.15,3.4,15.34,8.07A7.37,7.37,0,0,1,85.19,28c-.09,1.54-1.12,2.25-2.14,3.22a8.75,8.75,0,0,1-2.06.41,31.78,31.78,0,0,0-5.05,1c-2.24.59-4.46,1.14-6.71,1.56a.38.38,0,0,0-.55.1c-1.3.23-2.6.42-3.93.54a36.69,36.69,0,0,1-14.82-2,30.71,30.71,0,0,1-4-1.83c-2.09-1.06-1.49-3.45-1.08-5.28C45.51,22.59,47.82,20.64,50.47,19.11Z"/><path class="cls-9" d="M86,39.45c-.43.23-.26.65,0,.93.35.46-.07.42-.48.3a.3.3,0,0,0-.35-.11l-.27-.1a1.66,1.66,0,0,0-.89-.17c-.15,0-.32.12-.3.3.09,1-.71.58-1.37.62a.26.26,0,0,0-.25.33,5.57,5.57,0,0,1,.25.83,3.64,3.64,0,0,0-.79,0c-.25,0-.28.37-.14.52-.33.26-.6.29-.8.12l.16-.22c.15-.21-.2-.48-.35-.27l-.09.1a.18.18,0,0,0-.27.24v0c-.91.75-1.28-.78-2.16-.78-.55,0-.89.56-1,1C76.7,44.44,75.2,43,74.65,43s-1.25,2-1.84,1.68a2.55,2.55,0,0,0-2-.55l-.22.08c-.18-.14-.35-.27-.46-.35a11.29,11.29,0,0,1-1.1-.86A10.64,10.64,0,0,0,67.87,42c-.08-.06-.19.05-.13.13a7.88,7.88,0,0,0,1.66,1.84c.31.23.61.45.89.7a.42.42,0,0,0,0,.17,2.84,2.84,0,0,0,.83,1.13.7.7,0,0,1-.93.35.67.67,0,0,1-.59-.49.32.32,0,0,0,0-.2c-.17-1.18-1.72-1.8-2.47-2.57,0,0,0,0,0,0,.49.66,1.29,1.24,1.73,2l0,0a.86.86,0,0,0-.66.83c-.08.73-.78.37-1.14.14a.9.9,0,0,0-.76.06,1.89,1.89,0,0,0-.67.69c-.54.87-1.06-.32-1.5-.4s-1.8.15-1.72-.46a2.83,2.83,0,0,0,.05-1.17.26.26,0,0,0-.13-.17l.26-.26a16.53,16.53,0,0,1,1.84-1.7.06.06,0,0,0-.06-.1,7.63,7.63,0,0,0-1.82,1.15,14.76,14.76,0,0,0-1.4,1.21,1.83,1.83,0,0,0-.91,1c-.18.46-.25,1.25-.92.75a1.29,1.29,0,0,0-1-.4c-.78.07-.8-1.11-1.78-.77-.17.06-.84.34-1.15.21a.28.28,0,0,0-.07-.22c-.15-.17-.1-.39.07-.61l.05-.07a12.91,12.91,0,0,1,2.44-1.7.09.09,0,0,0-.07-.17,6.75,6.75,0,0,0-2.56,1.34.34.34,0,0,0-.28,0l0-.06c-.06-.08-.14-.24-.24-.29a2.87,2.87,0,0,0-1-.32c-.54,0-1.49.52-1.64-.34a.79.79,0,0,0-.72-.53c-.67.08-.9.27-.8-.57a1.29,1.29,0,0,0-.37-.9c-.39-.5-1.21.17-1.76.49v-.06a.34.34,0,0,0-.42-.24c-.62.15-1.45.58-1.85-.21-.12-.23-.42-.56-.7-.55a2.08,2.08,0,0,0-.95.3c-.73.39-.65-.79-.9-1a1,1,0,0,0-.68-.32l-.51.06c-.78.11-.15-.27.12-.36.53-.17,1.34-.41,1.36-1.11a.31.31,0,0,0-.15-.27c-.17-.08-1-.06-.43-.48a1.5,1.5,0,0,0,.57-.72c.09-.21-.16-.38-.34-.34-1.58.31-.53-1.27.34-1.24h0c.52.08,1.05.13,1.59.16A3,3,0,0,0,45.57,38a3.89,3.89,0,0,0,4.16,2c.42-.09.92,1.83,1.71.85a1.32,1.32,0,0,0,.31-.58c.18-.61.53-.37,1-.35a.72.72,0,0,0,.41-.19c.75-.61.47.2.45.62a.3.3,0,0,0,.29.29c.92.12.31,1,.3,1.56a.32.32,0,0,0,.32.32c.73,0,1.24-.66,1.86-.3.36.21.83,0,1.18-.28.21.46.57.7,1.11.21.15-.14,1-1.08,1.14-.13a2,2,0,0,0,.11.56.84.84,0,0,0,.87.54.25.25,0,0,0,.28-.25l.29-.15c.49-.29,1-.15,1.58-.23a1,1,0,0,0,.67-.58c.11-.26.15-.47.25-.66a8,8,0,0,0,1.51.62l.11,0a.36.36,0,0,0,.34,0,17.3,17.3,0,0,0,1.8-1.26l.22-.14c.52.26.74,1.37,1.43,1.47a.3.3,0,0,0,.36-.21c.32-1,1.12.3,1.67.46.71.21,1.08-.95,1.87,0a.48.48,0,0,0,.71.08,2.49,2.49,0,0,0,.48-.55c.55-.72.52-.62,1.21-.17a.27.27,0,0,0,.4-.16c.05-.16.3-1.81,1-.85a2.19,2.19,0,0,0,.61.62A1,1,0,0,0,78.85,41c.54-.47.56-1.06,1.49-1.17.44-.06.89.2,1.31.2a1,1,0,0,0,.67-.28,3,3,0,0,1,1.2-.75.32.32,0,0,0,.23-.3c.06-.58.5-.45.77-.77a1.81,1.81,0,0,0,.41-.64s0-.18,0-.35a.57.57,0,0,0,.14-.1c.2.23,0,.69.1,1.16S87,38.9,86,39.45Z"/><path class="cls-9" d="M84.36,36.53a1.09,1.09,0,0,1-.71,1.12.88.88,0,0,0-.33.18.77.77,0,0,0-.17.32c-.13.47,0,.11-.45.29s-.83,1-1.25,1a4.43,4.43,0,0,0-1.7.05,2.08,2.08,0,0,0-.94.75c-.74,1-1.36-.06-2-.46s-1,.32-1.14.91c-.13-.09-.26-.16-.38-.26a5.12,5.12,0,0,1-.62-.64,4,4,0,0,0-1.25-1.1,0,0,0,0,0,0,0c.39.49.71,1,1.09,1.53.1.13.21.27.33.4-.31,0-.54.37-1,1-.12.15-.76-.42-1-.5-.47-.16-1.42.62-1.72.24-.47-.62-1.33-1.07-1.82-.22a4.87,4.87,0,0,0-.9-1c.42-.25.84-.49,1.28-.72,1.37-.73,2.56-1.73,4-2.42a.16.16,0,0,0,.07-.08,41.37,41.37,0,0,0,4.83-.43A11.61,11.61,0,0,0,83.26,35l0,0a.88.88,0,0,1,.49,1c-.1.57-.77.57-1.17.66a1.2,1.2,0,0,0-.8.63c-.09.15-.14.35-.21.5-.25.52-.91,0-1.2-.1a1.23,1.23,0,0,0-1.2.26,0,0,0,0,0,0,.07,2.08,2.08,0,0,1,1.37.28,1.12,1.12,0,0,0,.81.18c.85-.28.75-1.36,1.68-1.51a1.23,1.23,0,0,0,.5-2.27l.13-.09a5.2,5.2,0,0,0,.73-.71c.09.43.19.85.25,1.28a2.56,2.56,0,0,1,0,.76l-.1,0,0,0h0A.28.28,0,0,0,84.36,36.53Z"/><path class="cls-9" d="M59.79,40.11a6.73,6.73,0,0,0-.49.55,3.59,3.59,0,0,1-.54.59.17.17,0,0,0-.06.13c-.32.3-.55.63-.67-.07,0-.24-.35-.26-.5-.13-.92.75-.62.05-1.38.05h-.06c.08-.12.15-.24.2-.32.29-.4.6-.8.88-1.21,0-.07,0-.14-.11-.1a3.79,3.79,0,0,0-1,.95c-.16.19-.31.4-.46.59s-.2.24-.18.39a3.11,3.11,0,0,1-.47.25c.1-.88.41-1.48-.65-1.7,0-.53.09-1.52-.64-1.28a4.44,4.44,0,0,1-1.67.37h-.09a11.82,11.82,0,0,1,2.83-1.32.05.05,0,0,0,0-.07c.65,0,1.32.07,2,.1l1.66.07a.22.22,0,0,0,.14.28c1.87.51,3.32,1.77,4.94,2.71a2,2,0,0,0-.17.39c-.22.7-.79.5-1.36.61s-.89.26-1.33.4c-.29-.39-.15-1.39-.88-1.41h-.17a8.73,8.73,0,0,0,.33-.81S59.82,40.08,59.79,40.11Z"/><path class="cls-4" d="M51,39.52l0,.08a3.19,3.19,0,0,0-.18.55c-.12-.15-.3-.28-.36-.45a.76.76,0,0,0-.77-.4,3.29,3.29,0,0,1-2.94-.81C46.16,38,45,36.11,46,35.34l0,0,.81,0a2,2,0,0,0-.34.66c-.18.67.53,1,1,1.17a.7.7,0,0,0,.37,0c.3-.07.17.28.11.42a.51.51,0,0,0,.19.63.71.71,0,0,0,.64.09,4.5,4.5,0,0,0,.46-.16c.18-.06.35,0,.53-.06a.12.12,0,0,0,.08-.14l0-.08a.2.2,0,0,0-.14-.14,1.92,1.92,0,0,0-1,.16c-.49.13-.08-.41-.07-.5a.65.65,0,0,0-.12-.55c-.26-.4-.63-.1-1-.23s-.61-.24-.52-.63.37-.47.62-.64h1.27a12.19,12.19,0,0,0,1.55,1.19,8.06,8.06,0,0,0,3.77,1.22,7.06,7.06,0,0,0-3.12,1.47A.25.25,0,0,0,51,39.52Z"/><path class="cls-4" d="M54.08,35.65a3.68,3.68,0,0,0-.7-.29l.67.05a.12.12,0,0,0,.06-.22,4.61,4.61,0,0,0-1.06-.32l.16,0a.09.09,0,0,0,0-.14,2.34,2.34,0,0,0-.51-.31l.28.07a47.21,47.21,0,0,0,6.28,1,17,17,0,0,1-5.45.3l.21,0A0,0,0,0,0,54.08,35.65Z"/><path class="cls-4" d="M59.94,36.09a.17.17,0,0,0,.14.1,2.79,2.79,0,0,0-.41.22,0,0,0,0,0,0,0,7,7,0,0,0,1.33-.1l-1,.3a.11.11,0,0,0,0,.22,14.89,14.89,0,0,0,1.88-.19,5.12,5.12,0,0,0-.64.25,0,0,0,0,0,0,0A10.06,10.06,0,0,0,64,36.61c-.37.14-.75.24-1.11.34a20,20,0,0,1-5.24.37,17.21,17.21,0,0,1-5.54-.55A3.73,3.73,0,0,1,53,37c.09,0,.17-.09.08-.14a11.38,11.38,0,0,1-.94-.7A14.83,14.83,0,0,0,59.94,36.09Z"/><path class="cls-4" d="M80.15,32.74c.3-.06.61,0,.91,0l.25,0h0c-.68.21-1.42.23-2.08.47,0,0-.05.07,0,.08a4.51,4.51,0,0,0,3.35-.47,4.13,4.13,0,0,1-1.63.66c-.73.17-1.45.33-2.17.54,0,0,0,.05,0,0,.56-.06,1.25-.06,1.95-.13-.72.18-1.46.28-2.17.39a42,42,0,0,1-7.33.24c3.15-.69,6.26-1.66,9.46-2.05a4.09,4.09,0,0,1-.52.25A0,0,0,0,0,80.15,32.74Z"/><path class="cls-4" d="M82.21,34.22a5.39,5.39,0,0,0,1.3-.42,4.64,4.64,0,0,1-1,.52c-.51.2-1.07.44-1.59.6A.06.06,0,0,0,81,35c.48-.08.91-.1,1.34-.17l-.41.18A20,20,0,0,1,77.5,36c-1.21.16-2.43.26-3.64.3.33,0,.65-.1,1-.17a.14.14,0,0,0,0-.27,15.75,15.75,0,0,0-2.23-.27,2.06,2.06,0,0,0,.32-.18.08.08,0,0,0,0-.15,7.68,7.68,0,0,1-1.27-.13,27.18,27.18,0,0,0,7.93-.3,12.47,12.47,0,0,0,3-.91l-.38.25A0,0,0,0,0,82.21,34.22Z"/><path class="cls-2" d="M53,49.67l-1.22-.06c-3.16-.12-6.83-.34-9.9.47-.23.06-.26.45,0,.5,2.88.51,6.07.23,9,.27,2.16,0,4.34.13,6.51.3A25,25,0,0,1,53,49.67Z"/><path class="cls-2" d="M86.1,50.55c-3.31-.26-6.6,0-9.91.07-1.06,0-2.1,0-3.14-.06a11.2,11.2,0,0,1-3.43.78l-1,0a76.45,76.45,0,0,0,17.51-.63C86.25,50.72,86.21,50.55,86.1,50.55Z"/><path class="cls-2" d="M92.37,46.63a80.66,80.66,0,0,0-8.72,0,4.54,4.54,0,0,1-1.52,1h0a92.49,92.49,0,0,0,10.29-.86C92.51,46.81,92.47,46.64,92.37,46.63Z"/><path class="cls-2" d="M90.1,43.42c-1.5-.11-3-.12-4.49-.09a1.69,1.69,0,0,1-.2.71l-.06.12c1.61-.15,3.2-.33,4.78-.54C90.24,43.6,90.2,43.43,90.1,43.42Z"/><path class="cls-2" d="M49.58,47.64a65.82,65.82,0,0,0-9.66.46.2.2,0,0,0,0,.38c3.55.53,7.32.16,10.92,0C50.4,48.23,50,47.95,49.58,47.64Z"/><path class="cls-2" d="M92.33,49.11a15.77,15.77,0,0,0-5.08-.65l-6-.36c-.34.16-.69.32-1.06.45a10.3,10.3,0,0,1-1.24.36c4.45.27,8.9.51,13.36.45A.13.13,0,0,0,92.33,49.11Z"/><path class="cls-2" d="M93.54,45c-2.78-.22-5.59-.35-8.4-.43a7.1,7.1,0,0,1-.76,1.13c3.06-.05,6.11-.16,9.16-.4A.15.15,0,0,0,93.54,45Z"/><path class="cls-2" d="M47,45.13c-3.2-.18-6.51-.43-9.46.46a.37.37,0,0,0,.1.73c3.53.21,7.08.25,10.64.21A13.19,13.19,0,0,1,47,45.13Z"/><path class="cls-2" d="M45.67,43l-6.48.28a.29.29,0,0,0,0,.57c2.35.19,4.71.24,7.08.21A11.33,11.33,0,0,1,45.67,43Z"/><path class="cls-2" d="M91,42.33a43.77,43.77,0,0,0-5.14-.2,6.8,6.8,0,0,1-.13.78c1.78,0,3.55-.09,5.28-.25A.16.16,0,0,0,91,42.33Z"/><path class="cls-2" d="M90.37,32.37c-.59-1.63-2.7-2.55-4-3a7.3,7.3,0,0,0,.23-3.06,11,11,0,0,0-4.14-6.8,30,30,0,0,0-10.38-4.1,32.34,32.34,0,0,0-4.44-.55,34.35,34.35,0,0,0-3.51-.17c-1.51,0-3.1.09-4.73.17h0c0,.09,0,.09-.06.09l0,.91h0C59.15,15,59.06,15,59,15l-1.15.15a21.56,21.56,0,0,0-7.38,2.4c-2.06,1.08-5,2.87-6.37,5.85-.95,2-1.95,6,.29,8.13a4.06,4.06,0,0,0,.36.3,8.46,8.46,0,0,1-.87.72l-.32.22a4.06,4.06,0,0,0-1.43,1.35.89.89,0,0,0,0,.84,3.3,3.3,0,0,0-.39.48,1.23,1.23,0,0,0-.16,1.28,1.09,1.09,0,0,0,.43.44,1.46,1.46,0,0,0-.2.59.9.9,0,0,0,0,.42,1.82,1.82,0,0,0-.72.4,1.35,1.35,0,0,0-.07,1.92,1.65,1.65,0,0,0,1.18.31h.31A1.94,1.94,0,0,0,43.06,42a1.22,1.22,0,0,0,.88.37h0a6.45,6.45,0,0,0,0,1.1.85.85,0,0,0,0,.46,2.71,2.71,0,0,0,.21.63,2.62,2.62,0,0,0,1.25,1.8A22.34,22.34,0,0,0,56.64,51.8a41.41,41.41,0,0,0,7.24.59A58.82,58.82,0,0,0,70.39,52a24.41,24.41,0,0,0,4.18-1c.71-.21,1.45-.43,2.19-.6a35.58,35.58,0,0,0,5.63-2c1.3-.54,2.85-1.36,3.39-2.83a9,9,0,0,0,.5-3.6,1,1,0,0,0,.35-.16,1.7,1.7,0,0,0,.66-1.08A1.17,1.17,0,0,0,87.1,40l.06-.07a1.79,1.79,0,0,0,.4-.77c.1-.47,0-1.13-1-1.61a.37.37,0,0,1-.15-.1,1,1,0,0,1,0-.25,1.65,1.65,0,0,0-.12-1,1.29,1.29,0,0,0-.4-.48c0-.11,0-.22,0-.34A5.55,5.55,0,0,0,85.54,34h0l.12-.05a2.84,2.84,0,0,1,.7-.1h.09c.3,0,.6,0,.92,0a6.88,6.88,0,0,0,2.42-.3A.89.89,0,0,0,90.37,32.37ZM86,39.45c-.43.23-.26.65,0,.93.35.46-.07.42-.48.3a.3.3,0,0,0-.35-.11l-.27-.1a1.66,1.66,0,0,0-.89-.17c-.15,0-.32.12-.3.3.09,1-.71.58-1.37.62a.26.26,0,0,0-.25.33,5.57,5.57,0,0,1,.25.83,3.64,3.64,0,0,0-.79,0c-.25,0-.28.37-.14.52-.33.26-.6.29-.8.12l.16-.22c.15-.21-.2-.48-.35-.27l-.09.1a.18.18,0,0,0-.27.24v0c-.91.75-1.28-.78-2.16-.78-.55,0-.89.56-1,1C76.7,44.44,75.2,43,74.65,43s-1.25,2-1.84,1.68a2.55,2.55,0,0,0-2-.55l-.22.08c-.18-.14-.35-.27-.46-.35a11.29,11.29,0,0,1-1.1-.86A10.64,10.64,0,0,0,67.87,42c-.08-.06-.19.05-.13.13a7.88,7.88,0,0,0,1.66,1.84c.31.23.61.45.89.7a.42.42,0,0,0,0,.17,2.84,2.84,0,0,0,.83,1.13.7.7,0,0,1-.93.35.67.67,0,0,1-.59-.49.32.32,0,0,0,0-.2c-.17-1.18-1.72-1.8-2.47-2.57,0,0,0,0,0,0,.49.66,1.29,1.24,1.73,2l0,0a.86.86,0,0,0-.66.83c-.08.73-.78.37-1.14.14a.9.9,0,0,0-.76.06,1.89,1.89,0,0,0-.67.69c-.54.87-1.06-.32-1.5-.4s-1.8.15-1.72-.46a2.83,2.83,0,0,0,.05-1.17.26.26,0,0,0-.13-.17l.26-.26a16.53,16.53,0,0,1,1.84-1.7.06.06,0,0,0-.06-.1,7.63,7.63,0,0,0-1.82,1.15,14.76,14.76,0,0,0-1.4,1.21,1.83,1.83,0,0,0-.91,1c-.18.46-.25,1.25-.92.75a1.29,1.29,0,0,0-1-.4c-.78.07-.8-1.11-1.78-.77-.17.06-.84.34-1.15.21a.28.28,0,0,0-.07-.22c-.15-.17-.1-.39.07-.61l.05-.07a12.91,12.91,0,0,1,2.44-1.7.09.09,0,0,0-.07-.17,6.75,6.75,0,0,0-2.56,1.34.34.34,0,0,0-.28,0l0-.06c-.06-.08-.14-.24-.24-.29a2.87,2.87,0,0,0-1-.32c-.54,0-1.49.52-1.64-.34a.79.79,0,0,0-.72-.53c-.67.08-.9.27-.8-.57a1.29,1.29,0,0,0-.37-.9c-.39-.5-1.21.17-1.76.49v-.06a.34.34,0,0,0-.42-.24c-.62.15-1.45.58-1.85-.21-.12-.23-.42-.56-.7-.55a2.08,2.08,0,0,0-.95.3c-.73.39-.65-.79-.9-1a1,1,0,0,0-.68-.32l-.51.06c-.78.11-.15-.27.12-.36.53-.17,1.34-.41,1.36-1.11a.31.31,0,0,0-.15-.27c-.17-.08-1-.06-.43-.48a1.5,1.5,0,0,0,.57-.72c.09-.21-.16-.38-.34-.34-1.58.31-.53-1.27.34-1.24h0c.52.08,1.05.13,1.59.16A3,3,0,0,0,45.57,38a3.89,3.89,0,0,0,4.16,2c.42-.09.92,1.83,1.71.85a1.32,1.32,0,0,0,.31-.58c.18-.61.53-.37,1-.35a.72.72,0,0,0,.41-.19c.75-.61.47.2.45.62a.3.3,0,0,0,.29.29c.92.12.31,1,.3,1.56a.32.32,0,0,0,.32.32c.73,0,1.24-.66,1.86-.3.36.21.83,0,1.18-.28.21.46.57.7,1.11.21.15-.14,1-1.08,1.14-.13a2,2,0,0,0,.11.56.84.84,0,0,0,.87.54.25.25,0,0,0,.28-.25l.29-.15c.49-.29,1-.15,1.58-.23a1,1,0,0,0,.67-.58c.11-.26.15-.47.25-.66a8,8,0,0,0,1.51.62l.11,0a.36.36,0,0,0,.34,0,17.3,17.3,0,0,0,1.8-1.26l.22-.14c.52.26.74,1.37,1.43,1.47a.3.3,0,0,0,.36-.21c.32-1,1.12.3,1.67.46.71.21,1.08-.95,1.87,0a.48.48,0,0,0,.71.08,2.49,2.49,0,0,0,.48-.55c.55-.72.52-.62,1.21-.17a.27.27,0,0,0,.4-.16c.05-.16.3-1.81,1-.85a2.19,2.19,0,0,0,.61.62A1,1,0,0,0,78.85,41c.54-.47.56-1.06,1.49-1.17.44-.06.89.2,1.31.2a1,1,0,0,0,.67-.28,3,3,0,0,1,1.2-.75.32.32,0,0,0,.23-.3c.06-.58.5-.45.77-.77a1.81,1.81,0,0,0,.41-.64s0-.18,0-.35a.57.57,0,0,0,.14-.1c.2.23,0,.69.1,1.16S87,38.9,86,39.45Zm-5,5.84a8.48,8.48,0,0,0,1.82,0c-.82.29-1.65.58-2.44.94a0,0,0,0,0,0,.09,13.8,13.8,0,0,0,3.8-.77l0,0a17.48,17.48,0,0,1-3.41,1.35,22.12,22.12,0,0,0-3.24.78,0,0,0,0,0,0,0,9,9,0,0,0,3.34-.44,19.53,19.53,0,0,0,2.07-.6A24.64,24.64,0,0,1,80,48c-1.73.77-3.53,1.1-5.32,1.69a24.61,24.61,0,0,1-6.18,1.21,50.6,50.6,0,0,1-12-.39,20.69,20.69,0,0,1-5.74-1.9,22.5,22.5,0,0,1-2.51-1.52L50,48a5.68,5.68,0,0,0,2.76.94c.05,0,.09-.07,0-.11a11.81,11.81,0,0,0-2.08-1.12c-.77-.4-1.45-.94-2.18-1.39a16.68,16.68,0,0,1-2.89-2.1,25.52,25.52,0,0,0,2.41,1.44c.91.53,1.73,1.24,2.85,1.16.06,0,.09-.09,0-.12a17.4,17.4,0,0,1-3.3-2.22,12.69,12.69,0,0,0,1.85.45.1.1,0,0,0,.08-.19c-1.06-.62-2.24-1.09-3.25-1.79a5.89,5.89,0,0,0,2.34.61c.1,0,.17-.14.09-.21a9.58,9.58,0,0,0-1.51-.83l-.09,0c.23-.07.46-.19.68-.28l0,.08a.35.35,0,0,0,.42.24,2.13,2.13,0,0,0,1-.45c.75-.54.56.33.53.89-.06,1.08,1.48.3,1.63.85.3,1.13,1.58.53,2.28.54.53,0,.65.41.88.6.07.49,0,1.15.51,1.27a2.48,2.48,0,0,0,1.37-.06c.92-.3.62.59,1.24.76s.82-.11,1.32.24a1.38,1.38,0,0,0,1.05.35c.19,0,.33-.31.38-.46.32-.89.58-1.58,1.49-1.86,0,.88-.47,1.49.7,1.9.67.23,1.26-.16,1.89.43a1.14,1.14,0,0,0,1.1.09c.31-.08.51-.5.66-.74.41-.67,1,.3,1.47.29,1.11,0,.68-1.3,1.24-1.57A1.7,1.7,0,0,0,70,46.86c.51.23,1.45.21,1.77-.33s0-1-.37-1.34a1.16,1.16,0,0,1-.18-.22l0-.09c0-.24,1.05.18,1.35.38a1.28,1.28,0,0,0,1,.28c.24-.08.58-.2.7-.45s.34-1.56.93-1.19c.85.54,1.38.74,2.19,0,.18-.16.18-.49.19-.71,0-1.1,1.36.23,1.64.4a.88.88,0,0,0,1.18-.27c.43.57,1.15,1.18,1.76.78s.41-.75.16-1.15h.34a.39.39,0,0,0,.23,0,2.63,2.63,0,0,0,1.36,0,5.48,5.48,0,0,0,.88-.26v.09a7,7,0,0,0-.69.23c-.52.17-1.06.26-1.57.44a.12.12,0,0,0,0,.23,2.8,2.8,0,0,0,1.54-.11l.47-.1a6.14,6.14,0,0,1-1.35.37,3.62,3.62,0,0,0-1.58.47.06.06,0,0,0,0,.12,7.45,7.45,0,0,0,1.67-.17,6.43,6.43,0,0,0,1.34-.33l0,.13A17,17,0,0,1,81,45.17.06.06,0,0,0,81,45.29Zm3.92-3.72c-.5.24-1,.37-1.56.59a.1.1,0,0,0,0,.19A3.79,3.79,0,0,0,85,42s0,0,0,0c-.29.09-.57.23-.84.33a10,10,0,0,1-1.25.34,3.44,3.44,0,0,0-.23-1c.44.06,1,.23,1.31,0h0a.16.16,0,0,0,.1,0A4,4,0,0,0,84.92,41.56Zm-.58-.43c.07-.15.15-.17.27-.14l-.05,0Zm-33.87-22a19.77,19.77,0,0,1,6.91-2.53,50,50,0,0,1,7.21-.52,44.58,44.58,0,0,1,4.56.31c4.67.55,13.15,3.4,15.34,8.07A7.37,7.37,0,0,1,85.19,28c-.09,1.54-1.12,2.25-2.14,3.22a8.75,8.75,0,0,1-2.06.41,31.78,31.78,0,0,0-5.05,1c-2.24.59-4.46,1.14-6.71,1.56a.38.38,0,0,0-.55.1c-1.3.23-2.6.42-3.93.54a36.69,36.69,0,0,1-14.82-2,30.71,30.71,0,0,1-4-1.83c-2.09-1.06-1.49-3.45-1.08-5.28C45.51,22.59,47.82,20.64,50.47,19.11ZM84.36,36.53a1.09,1.09,0,0,1-.71,1.12.88.88,0,0,0-.33.18.77.77,0,0,0-.17.32c-.13.47,0,.11-.45.29s-.83,1-1.25,1a4.43,4.43,0,0,0-1.7.05,2.08,2.08,0,0,0-.94.75c-.74,1-1.36-.06-2-.46s-1,.32-1.14.91c-.13-.09-.26-.16-.38-.26a5.12,5.12,0,0,1-.62-.64,4,4,0,0,0-1.25-1.1,0,0,0,0,0,0,0c.39.49.71,1,1.09,1.53.1.13.21.27.33.4-.31,0-.54.37-1,1-.12.15-.76-.42-1-.5-.47-.16-1.42.62-1.72.24-.47-.62-1.33-1.07-1.82-.22a4.87,4.87,0,0,0-.9-1c.42-.25.84-.49,1.28-.72,1.37-.73,2.56-1.73,4-2.42a.16.16,0,0,0,.07-.08,41.37,41.37,0,0,0,4.83-.43A11.61,11.61,0,0,0,83.26,35l0,0a.88.88,0,0,1,.49,1c-.1.57-.77.57-1.17.66a1.2,1.2,0,0,0-.8.63c-.09.15-.14.35-.21.5-.25.52-.91,0-1.2-.1a1.23,1.23,0,0,0-1.2.26,0,0,0,0,0,0,.07,2.08,2.08,0,0,1,1.37.28,1.12,1.12,0,0,0,.81.18c.85-.28.75-1.36,1.68-1.51a1.23,1.23,0,0,0,.5-2.27l.13-.09a5.2,5.2,0,0,0,.73-.71c.09.43.19.85.25,1.28a2.56,2.56,0,0,1,0,.76l-.1,0,0,0h0A.28.28,0,0,0,84.36,36.53ZM59.79,40.11a6.73,6.73,0,0,0-.49.55,3.59,3.59,0,0,1-.54.59.17.17,0,0,0-.06.13c-.32.3-.55.63-.67-.07,0-.24-.35-.26-.5-.13-.92.75-.62.05-1.38.05h-.06c.08-.12.15-.24.2-.32.29-.4.6-.8.88-1.21,0-.07,0-.14-.11-.1a3.79,3.79,0,0,0-1,.95c-.16.19-.31.4-.46.59s-.2.24-.18.39a3.11,3.11,0,0,1-.47.25c.1-.88.41-1.48-.65-1.7,0-.53.09-1.52-.64-1.28a4.44,4.44,0,0,1-1.67.37h-.09a11.82,11.82,0,0,1,2.83-1.32.05.05,0,0,0,0-.07c.65,0,1.32.07,2,.1l1.66.07a.22.22,0,0,0,.14.28c1.87.51,3.32,1.77,4.94,2.71a2,2,0,0,0-.17.39c-.22.7-.79.5-1.36.61s-.89.26-1.33.4c-.29-.39-.15-1.39-.88-1.41h-.17a8.73,8.73,0,0,0,.33-.81S59.82,40.08,59.79,40.11ZM51,39.52l0,.08a3.19,3.19,0,0,0-.18.55c-.12-.15-.3-.28-.36-.45a.76.76,0,0,0-.77-.4,3.29,3.29,0,0,1-2.94-.81C46.16,38,45,36.11,46,35.34l0,0,.81,0a2,2,0,0,0-.34.66c-.18.67.53,1,1,1.17a.7.7,0,0,0,.37,0c.3-.07.17.28.11.42a.51.51,0,0,0,.19.63.71.71,0,0,0,.64.09,4.5,4.5,0,0,0,.46-.16c.18-.06.35,0,.53-.06a.12.12,0,0,0,.08-.14l0-.08a.2.2,0,0,0-.14-.14,1.92,1.92,0,0,0-1,.16c-.49.13-.08-.41-.07-.5a.65.65,0,0,0-.12-.55c-.26-.4-.63-.1-1-.23s-.61-.24-.52-.63.37-.47.62-.64h1.27a12.19,12.19,0,0,0,1.55,1.19,8.06,8.06,0,0,0,3.77,1.22,7.06,7.06,0,0,0-3.12,1.47A.25.25,0,0,0,51,39.52Zm-1.92-6.15.79.38c-.23-.09-.45-.19-.67-.3Zm4.95,2.28a3.68,3.68,0,0,0-.7-.29l.67.05a.12.12,0,0,0,.06-.22,4.61,4.61,0,0,0-1.06-.32l.16,0a.09.09,0,0,0,0-.14,2.34,2.34,0,0,0-.51-.31l.28.07a47.21,47.21,0,0,0,6.28,1,17,17,0,0,1-5.45.3l.21,0A0,0,0,0,0,54.08,35.65Zm5.86.43a.17.17,0,0,0,.14.1,2.79,2.79,0,0,0-.41.22,0,0,0,0,0,0,0,7,7,0,0,0,1.33-.1l-1,.3a.11.11,0,0,0,0,.22,14.89,14.89,0,0,0,1.88-.19,5.12,5.12,0,0,0-.64.25,0,0,0,0,0,0,0A10.06,10.06,0,0,0,64,36.61c-.37.14-.75.24-1.11.34a20,20,0,0,1-5.24.37,17.21,17.21,0,0,1-5.54-.55A3.73,3.73,0,0,1,53,37c.09,0,.17-.09.08-.14a11.38,11.38,0,0,1-.94-.7A14.83,14.83,0,0,0,59.94,36.09Zm.32,0a3.17,3.17,0,0,1,.73-.26C60.75,35.92,60.5,36,60.27,36.1Zm1.16-.4.1-.06h.06Zm2.48.43A6.07,6.07,0,0,0,65,35.57.26.26,0,0,0,65,35.5l.15,0A4.1,4.1,0,0,1,63.9,36.13ZM59.43,38c2.79,0,5.92-.4,7.36-2.7l.22,0c.81,1.15,2.71,1.47,4,1.61.45.05.91.08,1.37.1a27.69,27.69,0,0,0-2.77,1.61,16.73,16.73,0,0,0-3.94,2.56h0C63.38,40.48,61.66,38.58,59.43,38Zm6.34-2.47a.22.22,0,0,0,0-.09h.08Zm1.77-.33.1,0a.4.4,0,0,0,.17.18,6.82,6.82,0,0,0,1.64.67A4.27,4.27,0,0,1,67.54,35.17Zm12.61-2.43c.3-.06.61,0,.91,0l.25,0h0c-.68.21-1.42.23-2.08.47,0,0-.05.07,0,.08a4.51,4.51,0,0,0,3.35-.47,4.13,4.13,0,0,1-1.63.66c-.73.17-1.45.33-2.17.54,0,0,0,.05,0,0,.56-.06,1.25-.06,1.95-.13-.72.18-1.46.28-2.17.39a42,42,0,0,1-7.33.24c3.15-.69,6.26-1.66,9.46-2.05a4.09,4.09,0,0,1-.52.25A0,0,0,0,0,80.15,32.74Zm2.06,1.48a5.39,5.39,0,0,0,1.3-.42,4.64,4.64,0,0,1-1,.52c-.51.2-1.07.44-1.59.6A.06.06,0,0,0,81,35c.48-.08.91-.1,1.34-.17l-.41.18A20,20,0,0,1,77.5,36c-1.21.16-2.43.26-3.64.3.33,0,.65-.1,1-.17a.14.14,0,0,0,0-.27,15.75,15.75,0,0,0-2.23-.27,2.06,2.06,0,0,0,.32-.18.08.08,0,0,0,0-.15,7.68,7.68,0,0,1-1.27-.13,27.18,27.18,0,0,0,7.93-.3,12.47,12.47,0,0,0,3-.91l-.38.25A0,0,0,0,0,82.21,34.22Zm1.32-2.35.07,0,0,.07Zm.8-.39,0,0s0,.07,0,.12h0Zm-39.65,2A8.39,8.39,0,0,0,46,32c.45.23.93.43,1.39.61h0s0,0,0,.08a1.83,1.83,0,0,0,.71,1.8L48,34.7a27.13,27.13,0,0,0-4.42-.18C44,34.18,44.34,33.77,44.68,33.44Zm40.53-.74a2.25,2.25,0,0,0-.09-1.9,3.91,3.91,0,0,0,.5-.61c1,.7,2.72,1.1,3.39,2.21C87.81,32.65,86.32,32.24,85.22,32.71Z"/><path class="cls-2" d="M62.91,17.75c.81.53,1.75-.47,1.78-1.26a.24.24,0,0,0-.17-.23,1.3,1.3,0,0,0-1.53.38C62.59,16.95,62.39,17.42,62.91,17.75Zm.15-.71a.24.24,0,0,0,.22,0,1.2,1.2,0,0,1,.47-.33,1,1,0,0,1,.48,0,1.06,1.06,0,0,1-.94.83C63,17.5,62.94,17.24,63.05,17Z"/><path class="cls-2" d="M60.07,18.45a1.33,1.33,0,0,0,.86.2.55.55,0,0,0,.51-.31c.15-.37-.31-.7-.61-.78a1,1,0,0,0-.67.08h0a.44.44,0,0,0-.27.22A.49.49,0,0,0,60.07,18.45Zm1.27-.25h0ZM60.42,18a.55.55,0,0,1,.52.09l0,0,0,0,0,0h0a.58.58,0,0,1-.29.05.91.91,0,0,1-.5-.11.25.25,0,0,1-.07-.08A1,1,0,0,0,60.42,18Z"/><path class="cls-2" d="M67,18.82a.6.6,0,0,0,.51-.27.44.44,0,0,0-.13-.5,1.22,1.22,0,0,0-.52-.3h0a.1.1,0,0,0-.07,0,.72.72,0,0,0-.65.05.51.51,0,0,0-.22.5C66,18.75,66.62,18.86,67,18.82Zm-.68-.75h0a1.83,1.83,0,0,1,.29,0,1.06,1.06,0,0,1,.35.14l.1.08,0,0h0l-.08,0c-.2,0-.65.11-.74-.14C66.26,18.17,66.27,18.13,66.33,18.07Z"/><path class="cls-2" d="M64.61,20.33a.65.65,0,0,0-.66.32c-.24.5.39.75.78.77a.82.82,0,0,0,.88-.73.48.48,0,0,0-.32-.49.68.68,0,0,0-.63.05A.12.12,0,0,0,64.61,20.33Zm.57.21a.33.33,0,0,1,.13,0h0l0,.05h0s0,0,0,0,0,0,0,0l0,0h0l0,0a.41.41,0,0,1-.24.12.72.72,0,0,1-.42,0,.14.14,0,0,1-.06-.05c.09-.18.37-.13.55-.17A.11.11,0,0,0,65.18,20.55Z"/><path class="cls-2" d="M62.33,19.55a2.27,2.27,0,0,0,.37,0A1.12,1.12,0,0,0,64,19.08a.22.22,0,0,0,0-.27c-.6-.59-1.84-.48-1.89.51A.23.23,0,0,0,62.33,19.55ZM63.51,19a1.09,1.09,0,0,1-.53.25l0,0a.47.47,0,0,0-.33-.13C62.79,18.83,63.21,18.86,63.51,19Z"/><path class="cls-2" d="M56.27,19.87c.68.2,1.65.36,1.81-.57a.27.27,0,0,0-.25-.33l-.14,0a.14.14,0,0,0-.08-.09,1.06,1.06,0,0,0-1.48.84A.21.21,0,0,0,56.27,19.87Zm.78-.74a.21.21,0,0,0,.18.17,1.57,1.57,0,0,1,.29.1c-.16.29-.61.21-.95.12A.71.71,0,0,1,57.05,19.13Z"/><path class="cls-2" d="M54.2,19.45a.81.81,0,0,0,.6,0,1,1,0,0,0,.59-.84c0-.39-.41-.46-.72-.35-.46,0-1.17.15-1,.72A.88.88,0,0,0,54.2,19.45Zm.17-.93a.18.18,0,0,0,.19.19,2.76,2.76,0,0,0,.33-.07h0c0,.07,0,0,0,.1a.68.68,0,0,1-.18.21.41.41,0,0,1-.25.09.48.48,0,0,1-.33-.15C53.89,18.74,54.12,18.61,54.37,18.53Z"/><path class="cls-2" d="M69.32,19.69a.26.26,0,0,0,.12.29,1.28,1.28,0,0,0,1.81-.27.54.54,0,0,0-.12-.72A3.1,3.1,0,0,0,70,18.92,1.14,1.14,0,0,0,69.32,19.69Zm1.39-.31a.14.14,0,0,0,.1,0h0s0,0,0,.05a.26.26,0,0,1-.05.13c-.18.29-.56.25-.86.12A.94.94,0,0,1,70.72,19.38Z"/><path class="cls-2" d="M68.7,18.19c.43.07.94,0,1-.56a.91.91,0,0,0-.74-.86c-.26-.05-.46.31-.24.45a1,1,0,0,0-.34.26C68.09,17.81,68.33,18.13,68.7,18.19Zm0-.56a.83.83,0,0,1,.33-.2.39.39,0,0,1,.1.16.09.09,0,0,1,0,.09.44.44,0,0,1-.29.1C68.63,17.78,68.56,17.77,68.68,17.64Z"/><path class="cls-2" d="M76.28,20.41a.21.21,0,0,0,.2-.15.94.94,0,0,0-.13-.9c-.14-.17-.51-.4-.73-.29a.08.08,0,0,0,0,0l-.06,0a.69.69,0,0,0-.31.52C75.14,20.27,75.79,20.47,76.28,20.41Zm-.56-.9a.22.22,0,0,1,.12,0H76l.06.09a.7.7,0,0,1,.06.47c-.23,0-.5,0-.49-.3A.33.33,0,0,1,75.72,19.51Z"/><path class="cls-2" d="M74.45,21.77a.69.69,0,0,0,.19-.95.75.75,0,0,0-.42-.29.69.69,0,0,0-.62.13.21.21,0,0,0,0,.26.45.45,0,0,0-.41.22.43.43,0,0,0,0,.5A1,1,0,0,0,74.45,21.77ZM73.69,21a.07.07,0,0,0,0,0h.06c.11,0,.21-.05.33-.05a.22.22,0,0,1,.13.06.32.32,0,0,1,0,.33.6.6,0,0,1-.67.1C73.31,21.32,73.62,21.16,73.69,21Z"/><path class="cls-2" d="M71.06,21.91a1,1,0,0,0-.13.28.15.15,0,0,0,.14.19,3.79,3.79,0,0,1,.74,0,.21.21,0,0,0,.23-.09.6.6,0,0,0-.09-.85.86.86,0,0,0-.9,0A.23.23,0,0,0,71.06,21.91Zm.46-.08a.27.27,0,0,1,.14,0c.06,0,.05.12,0,.2a3.06,3.06,0,0,1-.42,0A.6.6,0,0,1,71.52,21.83Z"/><path class="cls-2" d="M68.41,21.65a1.32,1.32,0,0,0,1,.32h.09l.09,0a.61.61,0,0,0,.26-.17,1.19,1.19,0,0,0,.23-.68.3.3,0,0,0-.15-.27,1.55,1.55,0,0,0-.75-.25.83.83,0,0,0-.24,0,.73.73,0,0,0-.85.32C68,21.19,68.2,21.49,68.41,21.65Zm.15-.59a.24.24,0,0,0,.17.1c.13,0,.24-.07.37-.06a.64.64,0,0,1,.32.12.52.52,0,0,1-.06.16c0,.07-.07.08-.11.09h-.11l-.13,0a1.11,1.11,0,0,1-.27-.14l-.17-.16,0-.07Zm0,0h0Z"/><path class="cls-2" d="M60,21.52a.25.25,0,0,0-.06.23l0,0a.53.53,0,0,0,.11.61,1.06,1.06,0,0,0,.68.33.76.76,0,0,0,.63-.17.68.68,0,0,0-.07-1A1,1,0,0,0,60,21.52Zm1.36.59h0l0,0a.54.54,0,0,1-.39,0,.47.47,0,0,1-.14-.09l0-.06v0s0,0,0,0l0,0,.13,0h.21l.09,0h0l0,0,.05.05,0,0,0,.05h0Z"/><path class="cls-2" d="M54.77,22.89a.57.57,0,0,0,0-.73.79.79,0,0,0-.89-.14,1,1,0,0,0-.86.39.26.26,0,0,0,0,.35A1.13,1.13,0,0,0,54.77,22.89Zm-1.16-.32a.46.46,0,0,1,.5-.06.23.23,0,0,0,.24,0h.06s0,0,0,0a.18.18,0,0,1,0,.08.46.46,0,0,1-.36.15A.65.65,0,0,1,53.6,22.57Z"/><path class="cls-2" d="M52.44,21.17a.79.79,0,0,0,.48-.2,1,1,0,0,0,.39-.52.27.27,0,0,0-.12-.29A1.28,1.28,0,0,0,52.6,20a.23.23,0,0,0-.16,0l0,0a.31.31,0,0,0-.18,0,.36.36,0,0,0-.29.1.67.67,0,0,0-.07.65A.59.59,0,0,0,52.44,21.17Zm-.19-1s0,0,0,0Zm.1.19v0h0v0h0l0,0h0l0,0h.1a.27.27,0,0,0,.26.36h.08l-.11.11,0,0-.07,0h-.14l0,0,0,0-.06-.1v-.15s0,0,0,0A.48.48,0,0,1,52.35,20.38Z"/><path class="cls-2" d="M79.91,22.16a1,1,0,0,0,.75-.86.67.67,0,0,0-.8-.65.18.18,0,1,0,0,.35c.16,0,.44,0,.41.25a.71.71,0,0,1-.37.44.67.67,0,0,1-.69,0,.22.22,0,0,1-.1-.23c.05-.12.26-.12.37-.14a.11.11,0,0,0,0-.21c-.36-.07-.79.18-.63.59A.9.9,0,0,0,79.91,22.16Z"/><path class="cls-2" d="M71.84,23.69a.73.73,0,0,0-.75.67.7.7,0,0,0,.84.72A1.35,1.35,0,0,0,73,24.42c.27-.59-.37-.94-.87-1A.26.26,0,0,0,71.84,23.69Zm.42.64a1,1,0,0,1-.32.15.56.56,0,0,1-.27,0h0l0,0a.17.17,0,0,1,0-.09c-.05-.22.21-.32.47-.36h0a2.2,2.2,0,0,1,.37.14A.51.51,0,0,1,72.27,24.32Z"/><path class="cls-2" d="M59.55,25.55a.82.82,0,0,0,.61-.27.74.74,0,0,0,.22-.69c-.07-.4-.74-.9-1.1-.55l0,.07h-.08c-.25.05-.33.32-.35.55A.83.83,0,0,0,59.55,25.55Zm-.23-1h0l.19.07a.42.42,0,0,1,.16.14.09.09,0,0,1,0,.11.45.45,0,0,1-.17.17.25.25,0,0,1-.22-.15A.38.38,0,0,1,59.32,24.52Z"/><path class="cls-2" d="M65.42,25.71a1,1,0,0,0,.78-1,.68.68,0,0,0-1-.54.17.17,0,0,0-.06.06.74.74,0,0,0-.84.67C64.21,25.55,64.94,25.78,65.42,25.71ZM65,25.09A.36.36,0,0,1,64.9,25l0,0a.14.14,0,0,1,.07-.11.58.58,0,0,1,.29-.08.23.23,0,0,0,.22-.24l.11,0a.31.31,0,0,1,0,.12.4.4,0,0,1-.23.37A.48.48,0,0,1,65,25.09Z"/><path class="cls-2" d="M68.54,25.32a.79.79,0,0,0,.83-.73c.05-.49-.57-.75-1-.61a.2.2,0,0,0-.12.09.61.61,0,0,0-.5.74A.83.83,0,0,0,68.54,25.32Zm-.13-.75.19-.12.07-.06a.33.33,0,0,1,.13.06l0,0s0,0,0,0a.19.19,0,0,1,0,.07.26.26,0,0,1-.06.12s-.1.09-.06.06l0,0s0,0,0,0h-.11c.05,0-.06,0-.07,0h0l-.06,0h0l0,0h0l0,0h0v0S68.4,24.58,68.41,24.57Zm-.06.07h0Zm-.07,0Z"/><path class="cls-2" d="M49.71,24.83c.13-.06.32-.17.37-.32A.82.82,0,0,0,50,24a.7.7,0,0,0-.47-.36.14.14,0,0,0-.07-.08.93.93,0,0,0-.58-.11.48.48,0,0,0-.2.09l0,0-.07.05a.38.38,0,0,0-.08.12,1,1,0,0,0,.14,1A.87.87,0,0,0,49.71,24.83Zm-.86-.43h0l0-.07h0l0-.07h0a.12.12,0,0,1,.08,0,.29.29,0,0,0,.17.42l.06,0h.09s0,0,.05,0,0,.05,0,.07l0,0-.12.07-.07,0h-.17l-.05,0h0L49,24.79h0l0-.07c0-.07,0,0,0-.09A.39.39,0,0,1,48.85,24.4Z"/><circle class="cls-2" cx="49.34" cy="23.8" transform="translate(-1.9 43.18) rotate(-46.47)"/><path class="cls-2" d="M48.91,23.8h0S48.93,23.78,48.91,23.8Z"/><path class="cls-2" d="M54.82,26.57v0a.2.2,0,0,0-.27,0,.54.54,0,0,0-.14.86,1.05,1.05,0,0,0,1,.28.61.61,0,0,0,.43-.9C55.65,26.59,55,26.19,54.82,26.57Zm-.48.48h0Zm.91.21a.6.6,0,0,1-.47-.12.17.17,0,0,1-.07-.09h0s0,0,0,0l.06-.07a.23.23,0,0,0,.1-.2.49.49,0,0,0,.22.09.46.46,0,0,1,.24.14C55.43,27.11,55.4,27.22,55.25,27.26Z"/><path class="cls-2" d="M73.06,27a.61.61,0,0,0-.73-.06.17.17,0,0,0,0,.16h0a.79.79,0,0,0-.42.41.66.66,0,0,0,.59,1,.86.86,0,0,0,1-.87A.78.78,0,0,0,73.06,27Zm-.65.95c-.19,0-.19-.13-.12-.26s.4-.14.43-.32a.39.39,0,0,1,.11.25C72.88,27.85,72.61,28,72.41,28Z"/><path class="cls-2" d="M76.57,25.25a.68.68,0,0,0-.45.64c0,.61,1,.74,1.39.5a.92.92,0,0,0,.33-1.18.78.78,0,0,0-.5-.41.73.73,0,0,0-.78.21A.23.23,0,0,0,76.57,25.25Zm.17.45a.77.77,0,0,1,.44-.14.16.16,0,0,0,.13-.09.49.49,0,0,1,0,.19v0h0l0,.08h0v0l0,0a.27.27,0,0,1-.2.1.6.6,0,0,1-.43-.1S76.68,25.76,76.74,25.7Z"/><path class="cls-2" d="M63.11,49.93c-2.53-.34-5.09-.18-7.61-.47,0,0,0,0,0,0a12.25,12.25,0,0,0,3,.54,26.6,26.6,0,0,0,4.58.32C63.28,50.32,63.37,50,63.11,49.93Z"/><path class="cls-2" d="M64.92,50a2.27,2.27,0,0,0-1,.25.09.09,0,0,0,0,.17h.93c.26,0,.56.07.74-.16a.09.09,0,0,0,0-.09C65.48,49.92,65.18,50,64.92,50Z"/><path class="cls-2" d="M75.13,31.55c1.6-.22,3.21-.29,4.8-.52A6.22,6.22,0,0,0,83.23,30c1.14-1.05,2-3.41.74-4.71a.17.17,0,0,0-.29.12c0,.35.05.68.08,1a2.42,2.42,0,0,1-.35,1.35A4.34,4.34,0,0,1,81.6,29.1a17.71,17.71,0,0,1-4.51,1.26s0,.07,0,.07a10,10,0,0,0,5.57-1.08,3.7,3.7,0,0,0,.47-.31,3.12,3.12,0,0,1-1.47,1,44.83,44.83,0,0,1-6.58,1.31C75,31.39,75,31.56,75.13,31.55Z"/><path class="cls-2" d="M72.39,32.37a13.84,13.84,0,0,0-3.65.33,41,41,0,0,1-4.63.64,17.88,17.88,0,0,1-4.74-.23,6.32,6.32,0,0,0-2.89-.39.07.07,0,0,0,0,.14c1.17.3,2.33.72,3.52.92a19.51,19.51,0,0,0,4.11.14,24.81,24.81,0,0,0,3.85-.5,42.1,42.1,0,0,0,4.47-.75A.15.15,0,0,0,72.39,32.37Z"/><path class="cls-2" d="M55.07,32.73c-.22-.06-.45-.07-.67-.12a1.67,1.67,0,0,0-.68-.12,0,0,0,0,0,0,.05,3.78,3.78,0,0,0,.64.42.93.93,0,0,0,.73.15A.2.2,0,0,0,55.07,32.73Z"/><path class="cls-2" d="M48,31.34a.22.22,0,0,0,.24-.32c-.65-1-1.93-1.37-2.57-2.44-1-1.63.27-4.14,1-5.64a0,0,0,0,0-.06,0,6.24,6.24,0,0,0-1.71,5A4.93,4.93,0,0,0,48,31.34Z"/><path class="cls-2" d="M45.93,26.89A4.22,4.22,0,0,0,47,29.47c.41.52,1.61,1.82,2.37,1.54a.15.15,0,0,0,.09-.22c-.12-.25-.29-.3-.53-.43a5.43,5.43,0,0,1-1.2-.93A7.37,7.37,0,0,1,46,26.87S45.93,26.83,45.93,26.89Z"/><path class="cls-2" d="M78.21,38.12a.71.71,0,0,0-.74.1c-.11.09-.19.22-.34.23a1.92,1.92,0,0,1-.74-.22c-.69-.26-1.09.21-1.18.83,0,.11.17.14.19,0,.1-.54.34-.74.81-.45a2.15,2.15,0,0,0,.8.28.72.72,0,0,0,.59-.15c.21-.19.4-.33.62-.5A.1.1,0,0,0,78.21,38.12Z"/><text></text></g></g></g></svg>